<svg width="26" height="25" viewBox="0 0 26 25" fill="none" xmlns="http://www.w3.org/2000/svg">
<path d="M23.9474 20.2647C24.4745 20.265 24.9813 20.4745 25.3628 20.8498C25.7443 21.225 25.9713 21.7374 25.9966 22.2806C26.0219 22.8238 25.8437 23.3562 25.4989 23.7676C25.1541 24.1789 24.6691 24.4376 24.1444 24.4901L23.9474 24.5H2.05263C1.52549 24.4997 1.01866 24.2902 0.637155 23.915C0.25565 23.5397 0.0287204 23.0273 0.00338785 22.4841C-0.0219447 21.9409 0.156262 21.4085 0.501082 20.9971C0.845902 20.5858 1.3309 20.3271 1.85558 20.2746L2.05263 20.2647H23.9474ZM23.9474 10.3824C24.4918 10.3824 25.0139 10.6055 25.3988 11.0026C25.7837 11.3997 26 11.9384 26 12.5C26 13.0616 25.7837 13.6003 25.3988 13.9974C25.0139 14.3945 24.4918 14.6176 23.9474 14.6176H2.05263C1.50824 14.6176 0.986145 14.3945 0.601202 13.9974C0.216259 13.6003 0 13.0616 0 12.5C0 11.9384 0.216259 11.3997 0.601202 11.0026C0.986145 10.6055 1.50824 10.3824 2.05263 10.3824H23.9474ZM23.9474 0.5C24.4918 0.5 25.0139 0.723109 25.3988 1.12024C25.7837 1.51738 26 2.05601 26 2.61765C26 3.17928 25.7837 3.71791 25.3988 4.11505C25.0139 4.51219 24.4918 4.73529 23.9474 4.73529H2.05263C1.50824 4.73529 0.986145 4.51219 0.601202 4.11505C0.216259 3.71791 0 3.17928 0 2.61765C0 2.05601 0.216259 1.51738 0.601202 1.12024C0.986145 0.723109 1.50824 0.5 2.05263 0.5H23.9474Z" fill="white"/>
</svg>
